<svg width="213" height="32" viewBox="0 0 213 32" fill="none" xmlns="http://www.w3.org/2000/svg">
    <path d="M212.7 0.445068V6.54243H204.445V31.6885H196.855V6.54243H188.601V0.445068H212.7Z" fill="white"/>
    <path d="M184.787 0.445068V31.6885H177.198V0.445068H184.787Z" fill="white"/>
    <path d="M166.805 15.6662C168.61 16.0519 170.06 16.9569 171.155 18.3811C172.249 19.7756 172.797 21.3778 172.797 23.1878C172.797 25.7988 171.88 27.8758 170.045 29.4186C168.24 30.9319 165.711 31.6885 162.456 31.6885H147.943V0.445068H161.968C165.134 0.445068 167.604 1.172 169.379 2.62587C171.184 4.07975 172.087 6.05286 172.087 8.54521C172.087 10.3848 171.599 11.9128 170.622 13.1294C169.675 14.3459 168.403 15.1915 166.805 15.6662ZM155.533 13.0848H160.503C161.746 13.0848 162.693 12.8178 163.344 12.2837C164.024 11.72 164.364 10.904 164.364 9.83589C164.364 8.76774 164.024 7.95179 163.344 7.38805C162.693 6.8243 161.746 6.54243 160.503 6.54243H155.533V13.0848ZM161.125 25.5466C162.397 25.5466 163.373 25.2647 164.054 24.701C164.764 24.1076 165.119 23.2619 165.119 22.1641C165.119 21.0663 164.749 20.2058 164.009 19.5828C163.299 18.9597 162.308 18.6481 161.036 18.6481H155.533V25.5466H161.125Z" fill="white"/>
    <path d="M143.993 10.5035C143.993 12.3134 143.579 13.975 142.75 15.4882C141.922 16.9717 140.65 18.1734 138.933 19.0932C137.217 20.013 135.087 20.4729 132.543 20.4729H127.838V31.6885H120.249V0.445068H132.543C135.028 0.445068 137.129 0.875295 138.845 1.73575C140.561 2.5962 141.848 3.78304 142.706 5.29625C143.564 6.80946 143.993 8.54521 143.993 10.5035ZM131.966 14.42C133.415 14.42 134.495 14.0788 135.205 13.3964C135.916 12.714 136.271 11.7497 136.271 10.5035C136.271 9.25731 135.916 8.29301 135.205 7.61058C134.495 6.92815 133.415 6.58693 131.966 6.58693H127.838V14.42H131.966Z" fill="white"/>
    <path d="M107.185 31.6885L100.706 19.8943H98.8861V31.6885H91.2969V0.445068H104.034C106.49 0.445068 108.576 0.875295 110.292 1.73575C112.038 2.5962 113.34 3.78304 114.198 5.29625C115.056 6.77979 115.485 8.44136 115.485 10.281C115.485 12.3579 114.893 14.2123 113.709 15.8442C112.555 17.4761 110.839 18.6333 108.561 19.3157L115.751 31.6885H107.185ZM98.8861 14.509H103.59C104.981 14.509 106.017 14.1678 106.697 13.4854C107.407 12.803 107.762 11.8387 107.762 10.5925C107.762 9.40566 107.407 8.47103 106.697 7.7886C106.017 7.10617 104.981 6.76496 103.59 6.76496H98.8861V14.509Z" fill="white"/>
    <path d="M55.1761 0.445068V31.6885H47.5869V18.8262H35.7816V31.6885H28.1924V0.445068H35.7816V12.6843H47.5869V0.445068H55.1761Z" fill="white"/>
    <path d="M12.1604 32C9.8822 32 7.84066 31.6291 6.03583 30.8873C4.231 30.1456 2.78122 29.0478 1.68648 27.5939C0.621336 26.14 0.0591748 24.3894 0 22.3421H8.07736C8.19571 23.4993 8.59514 24.3894 9.27565 25.0125C9.95617 25.6059 10.8438 25.9026 11.9385 25.9026C13.0628 25.9026 13.9505 25.6504 14.6014 25.146C15.2523 24.612 15.5778 23.885 15.5778 22.9652C15.5778 22.1938 15.3115 21.5559 14.7789 21.0515C14.2759 20.5471 13.6398 20.1317 12.8705 19.8053C12.1308 19.4789 11.0657 19.108 9.67508 18.6926C7.66314 18.0695 6.02104 17.4465 4.74878 16.8234C3.47652 16.2003 2.38179 15.2805 1.46458 14.064C0.547367 12.8475 0.0887622 11.2601 0.0887622 9.30181C0.0887622 6.39407 1.13912 4.12425 3.23982 2.49235C5.34053 0.830783 8.07736 0 11.4503 0C14.8825 0 17.6489 0.830783 19.7496 2.49235C21.8503 4.12425 22.9746 6.4089 23.1226 9.34631H14.9121C14.8529 8.33751 14.483 7.55123 13.8025 6.98748C13.122 6.39406 12.2492 6.09736 11.184 6.09736C10.2668 6.09736 9.52715 6.34956 8.96499 6.85396C8.40283 7.3287 8.12175 8.02596 8.12175 8.94576C8.12175 9.95457 8.59514 10.7408 9.54194 11.3046C10.4887 11.8683 11.9681 12.4766 13.9801 13.1293C15.992 13.8118 17.6193 14.4645 18.862 15.0876C20.1342 15.7107 21.229 16.6157 22.1462 17.8025C23.0634 18.9893 23.522 20.5174 23.522 22.3867C23.522 24.1669 23.0634 25.784 22.1462 27.2378C21.2586 28.6917 19.9567 29.8489 18.2406 30.7093C16.5246 31.5698 14.4978 32 12.1604 32Z" fill="white"/>
    <path fill-rule="evenodd" clip-rule="evenodd" d="M91.3548 31.7781L73.2714 0.368408L55.188 31.7781H91.3548ZM73.2724 27.6503C76.8208 27.6503 79.6973 24.7574 79.6973 21.1889C79.6973 17.6204 76.8208 14.7275 73.2724 14.7275C69.724 14.7275 66.8475 17.6204 66.8475 21.1889C66.8475 24.7574 69.724 27.6503 73.2724 27.6503Z" fill="#F9B145"/>
</svg>
