<svg width="213" height="32" viewBox="0 0 213 32" fill="none" xmlns="http://www.w3.org/2000/svg">
    <path d="M213 0.445068V6.54243H204.734V31.6885H197.134V6.54243H188.867V0.445068H213Z" fill="#426D7D"/>
    <path d="M185.048 0.445068V31.6885H177.448V0.445068H185.048Z" fill="#426D7D"/>
    <path d="M167.041 15.6662C168.848 16.0519 170.3 16.9569 171.396 18.3811C172.493 19.7756 173.041 21.3778 173.041 23.1878C173.041 25.7988 172.122 27.8758 170.285 29.4186C168.478 30.9319 165.945 31.6885 162.685 31.6885H148.152V0.445068H162.197C165.367 0.445068 167.841 1.172 169.619 2.62587C171.426 4.07975 172.33 6.05286 172.33 8.54521C172.33 10.3848 171.841 11.9128 170.863 13.1294C169.915 14.3459 168.641 15.1915 167.041 15.6662ZM155.752 13.0848H160.73C161.974 13.0848 162.922 12.8178 163.574 12.2837C164.256 11.72 164.596 10.904 164.596 9.83589C164.596 8.76774 164.256 7.95179 163.574 7.38805C162.922 6.8243 161.974 6.54243 160.73 6.54243H155.752V13.0848ZM161.352 25.5466C162.626 25.5466 163.604 25.2647 164.285 24.701C164.996 24.1076 165.352 23.2619 165.352 22.1641C165.352 21.0663 164.982 20.2058 164.241 19.5828C163.53 18.9597 162.537 18.6481 161.263 18.6481H155.752V25.5466H161.352Z" fill="#426D7D"/>
    <path d="M144.195 10.5035C144.195 12.3134 143.781 13.975 142.951 15.4882C142.121 16.9717 140.847 18.1734 139.129 19.0932C137.41 20.013 135.277 20.4729 132.729 20.4729H128.018V31.6885H120.418V0.445068H132.729C135.218 0.445068 137.321 0.875295 139.04 1.73575C140.758 2.5962 142.047 3.78304 142.906 5.29625C143.766 6.80946 144.195 8.54521 144.195 10.5035ZM132.151 14.42C133.603 14.42 134.684 14.0788 135.395 13.3964C136.107 12.714 136.462 11.7497 136.462 10.5035C136.462 9.25731 136.107 8.29301 135.395 7.61058C134.684 6.92815 133.603 6.58693 132.151 6.58693H128.018V14.42H132.151Z" fill="#426D7D"/>
    <path d="M107.337 31.6885L100.848 19.8943H99.0256V31.6885H91.4258V0.445068H104.181C106.64 0.445068 108.729 0.875295 110.448 1.73575C112.196 2.5962 113.499 3.78304 114.359 5.29625C115.218 6.77979 115.648 8.44136 115.648 10.281C115.648 12.3579 115.055 14.2123 113.87 15.8442C112.714 17.4761 110.996 18.6333 108.714 19.3157L115.914 31.6885H107.337ZM99.0256 14.509H103.737C105.129 14.509 106.166 14.1678 106.848 13.4854C107.559 12.803 107.914 11.8387 107.914 10.5925C107.914 9.40566 107.559 8.47103 106.848 7.7886C106.166 7.10617 105.129 6.76496 103.737 6.76496H99.0256V14.509Z" fill="#426D7D"/>
    <path d="M55.2542 0.445068V31.6885H47.6543V18.8262H35.8323V31.6885H28.2324V0.445068H35.8323V12.6843H47.6543V0.445068H55.2542Z" fill="#426D7D"/>
    <path d="M12.1776 32C9.89612 32 7.85171 31.6291 6.04434 30.8873C4.23696 30.1456 2.78514 29.0478 1.68886 27.5939C0.622211 26.14 0.0592582 24.3894 0 22.3421H8.08874C8.20726 23.4993 8.60725 24.3894 9.28872 25.0125C9.97019 25.6059 10.8591 25.9026 11.9553 25.9026C13.0812 25.9026 13.9701 25.6504 14.622 25.146C15.2738 24.612 15.5997 23.885 15.5997 22.9652C15.5997 22.1938 15.3331 21.5559 14.7997 21.0515C14.296 20.5471 13.659 20.1317 12.8887 19.8053C12.1479 19.4789 11.0813 19.108 9.68871 18.6926C7.67394 18.0695 6.02952 17.4465 4.75547 16.8234C3.48142 16.2003 2.38514 15.2805 1.46664 14.064C0.548138 12.8475 0.0888873 11.2601 0.0888873 9.30181C0.0888873 6.39407 1.14072 4.12425 3.24439 2.49235C5.34805 0.830783 8.08874 0 11.4665 0C14.9034 0 17.6738 0.830783 19.7774 2.49235C21.8811 4.12425 23.007 6.4089 23.1551 9.34631H14.9331C14.8738 8.33751 14.5034 7.55123 13.822 6.98748C13.1405 6.39406 12.2664 6.09736 11.1998 6.09736C10.2813 6.09736 9.54057 6.34956 8.97762 6.85396C8.41466 7.3287 8.13319 8.02596 8.13319 8.94576C8.13319 9.95457 8.60725 10.7408 9.55538 11.3046C10.5035 11.8683 11.985 12.4766 13.9998 13.1293C16.0145 13.8118 17.6441 14.4645 18.8886 15.0876C20.1626 15.7107 21.2589 16.6157 22.1774 17.8025C23.0959 18.9893 23.5551 20.5174 23.5551 22.3867C23.5551 24.1669 23.0959 25.784 22.1774 27.2378C21.2885 28.6917 19.9848 29.8489 18.2663 30.7093C16.5479 31.5698 14.5183 32 12.1776 32Z" fill="#426D7D"/>
    <path fill-rule="evenodd" clip-rule="evenodd" d="M91.4829 31.7781L73.374 0.368408L55.2651 31.7781H91.4829ZM73.3742 27.6503C76.9276 27.6503 79.8081 24.7574 79.8081 21.1889C79.8081 17.6204 76.9276 14.7275 73.3742 14.7275C69.8208 14.7275 66.9402 17.6204 66.9402 21.1889C66.9402 24.7574 69.8208 27.6503 73.3742 27.6503Z" fill="#F9B145"/>
</svg>
