<svg width="40" height="40" viewBox="0 0 40 40" fill="none" xmlns="http://www.w3.org/2000/svg">
    <circle cx="20" cy="20" r="20" fill="#426D7D"/>
    <g clip-path="url(#clip0_117_1258)">
        <path d="M12.3338 14.9736C14.5297 16.8333 18.3829 20.1052 19.5154 21.1253C19.6674 21.263 19.8305 21.333 19.9998 21.333C20.1687 21.333 20.3315 21.2637 20.4832 21.1266C21.6166 20.1055 25.4698 16.8333 27.6658 14.9736C27.8025 14.8581 27.8234 14.6549 27.7127 14.5137C27.4568 14.1872 27.0753 14 26.6664 14H13.3331C12.9243 14 12.5427 14.1872 12.2869 14.5137C12.1762 14.6549 12.197 14.8581 12.3338 14.9736Z" fill="white"/>
        <path d="M27.8067 15.9814C27.6885 15.9264 27.5495 15.9456 27.4512 16.0296C26.013 17.2486 24.1182 18.8593 22.6892 20.0885C22.614 20.153 22.5717 20.2477 22.5733 20.347C22.5749 20.4459 22.6208 20.5393 22.6983 20.6012C24.0261 21.6646 26.0271 23.1276 27.472 24.1673C27.5297 24.2089 27.598 24.2301 27.6667 24.2301C27.7188 24.2301 27.7709 24.2181 27.8187 24.1933C27.9301 24.1363 28 24.0217 28 23.8967V16.2838C28 16.1539 27.9245 16.0358 27.8067 15.9814Z" fill="white"/>
        <path d="M12.528 24.1673C13.9733 23.1276 15.9746 21.6648 17.3021 20.6013C17.3796 20.5394 17.4255 20.446 17.4271 20.347C17.4287 20.2478 17.3864 20.153 17.3112 20.0886C15.8822 18.8594 13.987 17.2487 12.5488 16.0297C12.4499 15.9457 12.3106 15.9271 12.1934 15.9815C12.0755 16.0358 12 16.154 12 16.2839V23.8968C12 24.0218 12.07 24.1364 12.1813 24.1934C12.2292 24.2182 12.2812 24.2302 12.3333 24.2302C12.402 24.2302 12.4704 24.209 12.528 24.1673Z" fill="white"/>
        <path d="M27.5915 25.0743C26.196 24.0759 23.6254 22.2146 22.0909 20.9691C21.9659 20.8672 21.7849 20.8705 21.6618 20.9766C21.3607 21.2393 21.1088 21.4607 20.93 21.6215C20.3812 22.1169 19.6195 22.1169 19.0694 21.6208C18.8913 21.4603 18.6394 21.2383 18.3382 20.9766C18.2162 20.8698 18.0349 20.8665 17.9095 20.9691C16.3802 22.2103 13.8066 24.0739 12.4089 25.0742C12.331 25.1302 12.2809 25.2165 12.2712 25.3119C12.2617 25.4072 12.2933 25.502 12.3587 25.5723C12.611 25.8441 12.9665 26.0001 13.3334 26.0001H26.6667C27.0336 26.0001 27.3887 25.8441 27.6417 25.5723C27.7068 25.5023 27.7387 25.4076 27.7292 25.3122C27.7195 25.2169 27.6693 25.1303 27.5915 25.0743Z" fill="white"/>
    </g>
    <defs>
        <clipPath id="clip0_117_1258">
            <rect width="16" height="16" fill="white" transform="translate(12 12)"/>
        </clipPath>
    </defs>
</svg>
