<svg width="40" height="40" viewBox="0 0 40 40" fill="none" xmlns="http://www.w3.org/2000/svg">
    <circle cx="20" cy="20" r="20" fill="#426D7D"/>
    <g clip-path="url(#clip0_117_1254)">
        <path d="M20 12C22.1736 12 22.4448 12.008 23.2976 12.048C24.1496 12.088 24.7296 12.2216 25.24 12.42C25.768 12.6232 26.2128 12.8984 26.6576 13.3424C27.0644 13.7423 27.3792 14.2261 27.58 14.76C27.7776 15.2696 27.912 15.8504 27.952 16.7024C27.9896 17.5552 28 17.8264 28 20C28 22.1736 27.992 22.4448 27.952 23.2976C27.912 24.1496 27.7776 24.7296 27.58 25.24C27.3797 25.7742 27.0649 26.2581 26.6576 26.6576C26.2576 27.0643 25.7738 27.379 25.24 27.58C24.7304 27.7776 24.1496 27.912 23.2976 27.952C22.4448 27.9896 22.1736 28 20 28C17.8264 28 17.5552 27.992 16.7024 27.952C15.8504 27.912 15.2704 27.7776 14.76 27.58C14.2259 27.3796 13.742 27.0648 13.3424 26.6576C12.9355 26.2577 12.6207 25.774 12.42 25.24C12.2216 24.7304 12.088 24.1496 12.048 23.2976C12.0104 22.4448 12 22.1736 12 20C12 17.8264 12.008 17.5552 12.048 16.7024C12.088 15.8496 12.2216 15.2704 12.42 14.76C12.6202 14.2257 12.935 13.7419 13.3424 13.3424C13.7421 12.9354 14.2259 12.6206 14.76 12.42C15.2704 12.2216 15.8496 12.088 16.7024 12.048C17.5552 12.0104 17.8264 12 20 12ZM20 16C18.9391 16 17.9217 16.4214 17.1716 17.1716C16.4214 17.9217 16 18.9391 16 20C16 21.0609 16.4214 22.0783 17.1716 22.8284C17.9217 23.5786 18.9391 24 20 24C21.0609 24 22.0783 23.5786 22.8284 22.8284C23.5786 22.0783 24 21.0609 24 20C24 18.9391 23.5786 17.9217 22.8284 17.1716C22.0783 16.4214 21.0609 16 20 16ZM25.2 15.8C25.2 15.5348 25.0946 15.2804 24.9071 15.0929C24.7196 14.9054 24.4652 14.8 24.2 14.8C23.9348 14.8 23.6804 14.9054 23.4929 15.0929C23.3054 15.2804 23.2 15.5348 23.2 15.8C23.2 16.0652 23.3054 16.3196 23.4929 16.5071C23.6804 16.6946 23.9348 16.8 24.2 16.8C24.4652 16.8 24.7196 16.6946 24.9071 16.5071C25.0946 16.3196 25.2 16.0652 25.2 15.8ZM20 17.6C20.6365 17.6 21.247 17.8529 21.6971 18.3029C22.1471 18.753 22.4 19.3635 22.4 20C22.4 20.6365 22.1471 21.247 21.6971 21.6971C21.247 22.1471 20.6365 22.4 20 22.4C19.3635 22.4 18.753 22.1471 18.3029 21.6971C17.8529 21.247 17.6 20.6365 17.6 20C17.6 19.3635 17.8529 18.753 18.3029 18.3029C18.753 17.8529 19.3635 17.6 20 17.6Z" fill="white"/>
    </g>
    <defs>
        <clipPath id="clip0_117_1254">
            <rect width="16" height="16" fill="white" transform="translate(12 12)"/>
        </clipPath>
    </defs>
</svg>
