<svg width="40" height="40" viewBox="0 0 40 40" fill="none" xmlns="http://www.w3.org/2000/svg">
    <circle cx="20" cy="20" r="20" fill="white"/>
    <g clip-path="url(#clip0_117_1182)">
        <path d="M26.7162 22.5022C25.7366 22.5022 24.7747 22.349 23.8633 22.0478C23.4167 21.8954 22.8676 22.0352 22.595 22.3151L20.796 23.6732C18.7096 22.5595 17.4245 21.2748 16.326 19.204L17.6441 17.4519C17.9865 17.1099 18.1094 16.6103 17.9622 16.1415C17.6597 15.2253 17.506 14.2639 17.506 13.2839C17.5061 12.576 16.9301 12 16.2222 12H13.2839C12.576 12 12 12.576 12 13.2839C12 21.3985 18.6016 28 26.7162 28C27.4241 28 28 27.424 28 26.7161V23.786C28 23.0781 27.424 22.5022 26.7162 22.5022Z" fill="#426D7D"/>
    </g>
    <defs>
        <clipPath id="clip0_117_1182">
            <rect width="16" height="16" fill="white" transform="translate(12 12)"/>
        </clipPath>
    </defs>
</svg>
