<svg width="72" height="72" viewBox="0 0 72 72" fill="none" xmlns="http://www.w3.org/2000/svg">
    <circle cx="36" cy="36" r="36" fill="#426D7D"/>
    <path d="M49.0665 33.7095C48.5787 33.7104 48.104 33.8667 47.7111 34.1558C47.3183 34.4449 47.0278 34.8517 46.8819 35.3172H37.1915V34.4126V32.9688H43.7076C43.8425 32.9684 43.9744 32.928 44.0864 32.8527L47.1926 30.7808C47.5102 30.9408 47.8609 31.0239 48.2166 31.0232C48.7183 31.024 49.2065 30.8602 49.6063 30.557C50.006 30.2538 50.2954 29.8279 50.4299 29.3446C50.5645 28.8612 50.5369 28.347 50.3512 27.8809C50.1656 27.4147 49.8323 27.0223 49.4023 26.7637C48.9723 26.5051 48.4694 26.3947 47.9706 26.4493C47.4718 26.5039 47.0047 26.7205 46.6409 27.066C46.277 27.4115 46.0364 27.8667 45.9561 28.362C45.8757 28.8573 45.9599 29.3652 46.1959 29.808L43.5096 31.6034H37.1915V29.122H40.4922C40.6014 29.1216 40.7089 29.0951 40.8057 29.0446C40.9025 28.9941 40.9858 28.9211 41.0486 28.8318L42.4856 26.8248C43.0171 26.7347 43.4996 26.4596 43.8477 26.048C44.1958 25.6364 44.3871 25.1149 44.3877 24.5758C44.3883 24.0367 44.1982 23.5148 43.8509 23.1025C43.5037 22.6901 43.0218 22.4139 42.4905 22.3227C41.9591 22.2315 41.4127 22.3313 40.9479 22.6042C40.483 22.8772 40.1297 23.3059 39.9505 23.8143C39.7713 24.3227 39.7778 24.8781 39.9688 25.3823C40.1597 25.8864 40.5229 26.3067 40.9939 26.5688L40.1509 27.7566H37.1915V26.05C37.1915 26.0295 37.1915 26.0056 37.1915 25.9817C37.0964 25.0573 36.724 24.1832 36.1232 23.4742C35.5224 22.7652 34.7212 22.2545 33.8249 22.009C32.9286 21.7635 31.9791 21.7948 31.1008 22.0986C30.2226 22.4025 29.4568 22.9649 28.9039 23.7118C27.4949 23.8175 26.1776 24.4509 25.2151 25.4855C24.2527 26.5201 23.716 27.8796 23.7122 29.2926C23.7128 29.6245 23.7425 29.9558 23.801 30.2825C22.8495 30.7455 22.0489 31.469 21.4922 32.369C20.9356 33.269 20.6458 34.3085 20.6565 35.3666C20.6673 36.4248 20.9781 37.4581 21.5528 38.3467C22.1276 39.2352 22.9427 39.9423 23.9034 40.386C23.5241 41.1508 23.3278 41.9933 23.3299 42.847C23.3318 44.3311 23.9221 45.7538 24.9715 46.8033C26.0209 47.8527 27.4437 48.443 28.9278 48.4448H29.2691C29.6818 48.9784 30.2117 49.4098 30.8178 49.7057C31.4239 50.0017 32.0899 50.1542 32.7644 50.1515C33.7755 50.1552 34.7589 49.8214 35.5589 49.2032C36.3589 48.5849 36.9298 47.7175 37.1813 46.7382C37.1922 46.6865 37.1979 46.6339 37.1983 46.5812V44.243H40.1474L40.9905 45.4309C40.5169 45.6937 40.1516 46.1156 39.9592 46.6219C39.7668 47.1283 39.7598 47.6863 39.9395 48.1973C40.1191 48.7083 40.4738 49.1393 40.9407 49.4138C41.4077 49.6884 41.9567 49.7888 42.4905 49.6974C43.0244 49.606 43.5087 49.3286 43.8577 48.9143C44.2067 48.5001 44.3978 47.9757 44.3972 47.434C44.3966 46.8924 44.2043 46.3684 43.8544 45.9549C43.5046 45.5414 43.0197 45.2651 42.4856 45.1749L41.0486 43.1678C40.9854 43.0791 40.902 43.0068 40.8052 42.9569C40.7084 42.9071 40.6011 42.8811 40.4922 42.8811H37.1915V42.8026V40.4133H43.5096L46.1993 42.2087C45.9385 42.6937 45.8599 43.256 45.9775 43.794C46.0951 44.332 46.4012 44.8102 46.8406 45.1422C47.2799 45.4741 47.8235 45.6381 48.3732 45.6043C48.9228 45.5705 49.4423 45.3413 49.8377 44.958C50.2331 44.5747 50.4784 44.0626 50.5292 43.5143C50.58 42.9659 50.4331 42.4175 50.1149 41.968C49.7968 41.5186 49.3283 41.1977 48.7943 41.0634C48.2602 40.9292 47.6957 40.9903 47.2028 41.2359L44.0967 39.164C43.9846 39.0887 43.8528 39.0483 43.7178 39.0479H37.1915V36.6825H46.8819C47.0082 37.0868 47.2441 37.4482 47.5634 37.7265C47.8828 38.0048 48.273 38.1891 48.6908 38.2589C49.1086 38.3287 49.5376 38.2812 49.93 38.1218C50.3225 37.9624 50.663 37.6973 50.9139 37.356C51.1647 37.0147 51.3159 36.6104 51.3508 36.1883C51.3856 35.7662 51.3027 35.3426 51.1113 34.9648C50.9199 34.5869 50.6274 34.2695 50.2664 34.0479C49.9054 33.8263 49.4901 33.7092 49.0665 33.7095ZM48.2097 27.8078C48.3927 27.8078 48.5715 27.8621 48.7236 27.9637C48.8758 28.0654 48.9943 28.2098 49.0643 28.3788C49.1343 28.5479 49.1527 28.7339 49.117 28.9133C49.0813 29.0927 48.9932 29.2576 48.8638 29.3869C48.7345 29.5163 48.5696 29.6044 48.3902 29.6401C48.2108 29.6758 48.0248 29.6574 47.8557 29.5874C47.6867 29.5174 47.5423 29.3989 47.4406 29.2467C47.339 29.0946 47.2847 28.9158 47.2847 28.7328C47.2856 28.4878 47.3834 28.253 47.5566 28.0797C47.7299 27.9065 47.9647 27.8087 48.2097 27.8078ZM42.0999 23.6436C42.2828 23.6436 42.4617 23.6978 42.6138 23.7994C42.7659 23.9011 42.8845 24.0456 42.9545 24.2146C43.0245 24.3836 43.0428 24.5696 43.0071 24.749C42.9714 24.9285 42.8833 25.0933 42.754 25.2227C42.6246 25.352 42.4598 25.4401 42.2803 25.4758C42.1009 25.5115 41.9149 25.4932 41.7459 25.4232C41.5769 25.3532 41.4324 25.2346 41.3307 25.0825C41.2291 24.9304 41.1749 24.7515 41.1749 24.5686C41.1758 24.3235 41.2735 24.0888 41.4468 23.9155C41.6201 23.7422 41.8548 23.6445 42.0999 23.6436ZM42.0999 48.3561C41.9169 48.3561 41.7381 48.3018 41.586 48.2002C41.4338 48.0986 41.3153 47.9541 41.2453 47.7851C41.1753 47.616 41.1569 47.43 41.1926 47.2506C41.2283 47.0712 41.3164 46.9064 41.4458 46.777C41.5752 46.6476 41.74 46.5595 41.9194 46.5238C42.0988 46.4881 42.2848 46.5065 42.4539 46.5765C42.6229 46.6465 42.7673 46.765 42.869 46.9172C42.9706 47.0693 43.0249 47.2481 43.0249 47.4311C43.024 47.6761 42.9262 47.9109 42.753 48.0842C42.5797 48.2574 42.3449 48.3552 42.0999 48.3561ZM49.1348 43.2668C49.1348 43.4498 49.0805 43.6286 48.9789 43.7807C48.8772 43.9328 48.7327 44.0514 48.5637 44.1214C48.3947 44.1914 48.2087 44.2097 48.0293 44.174C47.8498 44.1384 47.685 44.0503 47.5557 43.9209C47.4263 43.7915 47.3382 43.6267 47.3025 43.4473C47.2668 43.2678 47.2851 43.0818 47.3551 42.9128C47.4251 42.7438 47.5437 42.5993 47.6958 42.4977C47.8479 42.396 48.0268 42.3418 48.2097 42.3418C48.4548 42.3427 48.6895 42.4404 48.8628 42.6137C49.0361 42.787 49.1339 43.0218 49.1348 43.2668ZM35.8227 46.489C35.6253 47.1508 35.2199 47.7313 34.6665 48.1445C34.1131 48.5577 33.4413 48.7815 32.7507 48.7828C32.2328 48.7811 31.7237 48.6484 31.2707 48.3972C30.8178 48.1459 30.4357 47.7843 30.16 47.3457C30.0984 47.2485 30.0133 47.1684 29.9124 47.1129C29.8115 47.0574 29.6983 47.0283 29.5832 47.0283H29.4876C29.2955 47.0573 29.1016 47.0733 28.9073 47.0761C27.7901 47.0743 26.7186 46.6316 25.9261 45.8441C25.1335 45.0566 24.6838 43.9881 24.6748 42.8709C24.6762 42.8458 24.6762 42.8208 24.6748 42.7958C24.6757 42.2957 24.7751 41.8007 24.9674 41.3391C25.1597 40.8774 25.4411 40.4582 25.7955 40.1054C26.15 39.7526 26.5704 39.4731 27.0329 39.2828C27.4954 39.0926 27.9908 38.9954 28.4909 38.9967C28.672 38.9967 28.8456 38.9248 28.9736 38.7968C29.1017 38.6688 29.1736 38.4951 29.1736 38.3141C29.1736 38.133 29.1017 37.9594 28.9736 37.8313C28.8456 37.7033 28.672 37.6314 28.4909 37.6314C27.7867 37.6315 27.0899 37.7763 26.444 38.057C25.7981 38.3377 25.2168 38.7482 24.7362 39.263C23.9273 38.9566 23.2318 38.4094 22.7438 37.6952C22.2557 36.981 21.9986 36.1343 22.0072 35.2693C22.0157 34.4043 22.2895 33.5628 22.7916 32.8584C23.2937 32.154 23.9999 31.6206 24.8147 31.3304C24.9793 31.272 25.1153 31.1528 25.1947 30.9972C25.274 30.8417 25.2908 30.6616 25.2414 30.4941C25.128 30.1039 25.0728 29.699 25.0776 29.2926C25.0802 28.3211 25.4162 27.3799 26.0294 26.6263C26.6426 25.8727 27.4958 25.3523 28.4465 25.1522C28.3412 25.8927 28.4089 26.6474 28.6445 27.3573C28.6914 27.487 28.7765 27.5996 28.8886 27.68C29.0007 27.7604 29.1346 27.805 29.2726 27.8078C29.3528 27.8075 29.4324 27.7937 29.5081 27.7669C29.5925 27.7357 29.67 27.6882 29.736 27.627C29.802 27.5658 29.8552 27.4922 29.8926 27.4103C29.9301 27.3285 29.951 27.24 29.9541 27.1501C29.9572 27.0601 29.9425 26.9705 29.9109 26.8862C29.7114 26.1648 29.7114 25.4027 29.9109 24.6812C30.2782 24.1285 30.8065 23.702 31.4242 23.4594C32.0419 23.2168 32.7193 23.1697 33.3646 23.3246C34.0099 23.4795 34.5921 23.8289 35.0323 24.3255C35.4726 24.8221 35.7497 25.4419 35.8262 26.1012V30.9242C35.3441 30.3951 34.7569 29.9725 34.1021 29.6833C33.4474 29.3941 32.7395 29.2448 32.0237 29.2448C31.8427 29.2448 31.669 29.3168 31.541 29.4448C31.413 29.5728 31.341 29.7464 31.341 29.9275C31.341 30.1086 31.413 30.2822 31.541 30.4102C31.669 30.5382 31.8427 30.6102 32.0237 30.6102C33.0313 30.6111 33.9974 31.0115 34.7102 31.7237C35.4231 32.4358 35.8244 33.4016 35.8262 34.4092V39.3108C35.3435 38.7823 34.7562 38.3602 34.1016 38.071C33.447 37.7819 32.7393 37.6322 32.0237 37.6314C31.8427 37.6314 31.669 37.7033 31.541 37.8313C31.413 37.9594 31.341 38.133 31.341 38.3141C31.341 38.4951 31.413 38.6688 31.541 38.7968C31.669 38.9248 31.8427 38.9967 32.0237 38.9967C33.0316 38.9985 33.9977 39.3997 34.7105 40.1124C35.4232 40.8251 35.8244 41.7913 35.8262 42.7992L35.8227 46.489ZM49.0631 36.9317C48.8807 36.9303 48.7028 36.8751 48.5517 36.7729C48.4007 36.6708 48.2832 36.5262 48.214 36.3575C48.1449 36.1888 48.1271 36.0033 48.163 35.8245C48.1989 35.6457 48.2869 35.4815 48.4158 35.3526C48.5448 35.2236 48.709 35.1357 48.8878 35.0998C49.0666 35.0639 49.252 35.0816 49.4207 35.1508C49.5895 35.2199 49.734 35.3374 49.8362 35.4885C49.9383 35.6396 49.9936 35.8175 49.9949 35.9998C49.994 36.2455 49.8958 36.4807 49.7218 36.6541C49.5478 36.8275 49.3121 36.9248 49.0665 36.9248L49.0631 36.9317Z" fill="white"/>
</svg>
