<svg width="72" height="72" viewBox="0 0 72 72" fill="none" xmlns="http://www.w3.org/2000/svg">
    <circle cx="36" cy="36" r="36" fill="#426D7D"/>
    <g clip-path="url(#clip0_117_1076)">
        <path d="M51.9988 41.5353C51.9808 41.0826 51.6955 40.6857 51.2713 40.5245L44.559 37.99C45.2772 36.3746 45.6536 34.5911 45.6486 32.8243C45.6449 29.4006 44.3091 26.1815 41.8881 23.7605C39.4672 21.3395 36.2481 20.0037 32.8243 20C25.753 20 20 25.753 20 32.8243C20 39.8957 25.753 45.6486 32.8237 45.6486C32.8355 45.6486 32.8479 45.6486 32.8597 45.6486C34.6152 45.6486 36.3851 45.2722 37.99 44.559L40.5263 51.2713C40.6869 51.6943 41.0832 51.9802 41.5402 51.9988H41.5855C41.5886 51.9988 41.5917 51.9988 41.5948 51.9988C42.024 51.9988 42.4097 51.7612 42.6019 51.3805L44.5621 47.7304L46.7314 49.9002C47.4079 50.5464 48.4677 50.5464 49.1462 49.8984L49.8978 49.1468C50.2202 48.8243 50.3982 48.3958 50.3988 47.94C50.3988 47.4842 50.2221 47.0551 49.8978 46.7301L47.7298 44.5628L51.3681 42.6075C51.7712 42.406 52.0186 41.9849 51.9981 41.5353H51.9988ZM37.8511 35.4561L36.3516 34.8881H36.3504C35.7612 34.6704 35.1052 34.9737 34.8881 35.5628C34.7938 35.8189 34.7945 36.1011 34.8906 36.3566L35.1213 36.9668C34.5669 36.9525 34.0156 36.9432 33.4779 36.9389V33.4773H37.9807C37.9633 34.1545 37.9199 34.8187 37.8511 35.4561ZM33.4779 44.2422V38.2455C34.1731 38.2511 34.8924 38.2647 35.6199 38.2858L36.5401 40.7217C35.711 42.6546 34.6295 43.8955 33.4779 44.2422ZM36.1767 43.8428C36.5556 43.3951 36.8893 42.9101 37.1733 42.3967L37.5274 43.3337C37.0896 43.5315 36.6369 43.702 36.1767 43.8428ZM44.3209 33.4773C44.2465 34.8831 43.9147 36.2443 43.3337 37.5274L39.1087 35.9305C39.2079 35.1188 39.2675 34.2946 39.2867 33.4773H44.3209ZM39.2898 32.1707C39.2631 30.9497 39.1453 29.7224 38.9388 28.5175C40.4153 28.4239 41.895 28.2955 43.3405 28.1349C43.9141 29.4142 44.244 30.7711 44.3228 32.1701H39.2898V32.1707ZM38.6734 27.2251C38.1289 24.9462 37.2768 23.0876 36.1953 21.8114C38.9233 22.6498 41.211 24.437 42.6887 26.8878C41.3164 27.0329 39.967 27.1464 38.6734 27.2245V27.2251ZM37.9832 32.1707H33.4779V28.7066C34.8565 28.6973 36.2462 28.6583 37.6123 28.5907C37.8275 29.7695 37.9522 30.9726 37.9832 32.1713V32.1707ZM33.4779 27.3969V21.4046C35.0605 21.8833 36.519 24.1102 37.3289 27.2934C36.0552 27.3529 34.761 27.3876 33.4779 27.3975V27.3969ZM50.4565 41.6147L46.3376 43.8273C46.1838 43.9098 46.0715 44.0474 46.0213 44.2149C45.9711 44.3817 45.9891 44.5584 46.0715 44.7122C46.1019 44.7687 46.1398 44.8201 46.185 44.8648L48.9744 47.6541C49.1313 47.8104 49.1319 48.0646 48.9744 48.2228L48.2246 48.9725C48.064 49.1263 47.8123 49.1263 47.6535 48.9744L44.8648 46.185C44.7414 46.0616 44.5777 45.9934 44.4028 45.9934C44.2285 45.9934 44.0642 46.061 43.9408 46.1844C43.8955 46.2297 43.8577 46.2812 43.8267 46.3376L41.6271 50.4819L36.2443 36.2443L50.4559 41.6147H50.4565ZM26.7098 28.5181C26.5039 29.7224 26.3861 30.9497 26.3588 32.1713H21.3258C21.404 30.7717 21.7345 29.4154 22.3081 28.1361C23.7518 28.2967 25.2314 28.4257 26.7098 28.5187V28.5181ZM32.1713 38.248V44.2329C30.5801 43.7411 29.1184 41.5179 28.3129 38.3534C29.5965 38.2926 30.8932 38.2573 32.1713 38.248ZM27.6723 33.4773H32.1713V36.942C30.8058 36.9513 29.4161 36.9903 28.0363 37.0586C27.823 35.8791 27.7002 34.6754 27.6723 33.4773ZM29.4539 21.812C28.3705 23.0895 27.5191 24.9486 26.9759 27.2258C25.6885 27.147 24.3397 27.0341 22.9605 26.8884C24.4377 24.4377 26.7259 22.6504 29.4539 21.812ZM26.9864 38.4241C27.534 40.7111 28.3805 42.569 29.4483 43.8341C26.7235 42.9951 24.4377 41.2091 22.9617 38.7602C24.3018 38.6188 25.6544 38.5059 26.9864 38.4241ZM32.1719 28.706V32.1707H27.6667C27.6977 30.9726 27.8217 29.7689 28.0375 28.5901C29.403 28.6576 30.7928 28.6967 32.1726 28.706H32.1719ZM32.1719 21.404V27.3969C30.8901 27.3882 29.5959 27.3535 28.3209 27.2927C29.1308 24.109 30.59 21.8821 32.1719 21.4034V21.404ZM26.3663 33.4767C26.3942 34.6996 26.5145 35.9281 26.7235 37.133C25.2017 37.2291 23.7177 37.3568 22.3094 37.5131C21.7351 36.2332 21.4052 34.8763 21.3271 33.4767H26.3663Z" fill="white"/>
    </g>
    <defs>
        <clipPath id="clip0_117_1076">
            <rect width="32" height="31.9988" fill="white" transform="translate(20 20)"/>
        </clipPath>
    </defs>
</svg>
