
<svg width="72" height="72" viewBox="0 0 72 72" fill="none" xmlns="http://www.w3.org/2000/svg">
    <circle cx="36" cy="36" r="36" fill="#426D7D"/>
    <g clip-path="url(#clip0_117_1084)">
        <path d="M31.2351 39.1084C30.8491 39.1084 30.5342 39.4233 30.5342 39.8094V41.7192C30.5342 42.1052 30.8491 42.4201 31.2351 42.4201C31.6212 42.4201 31.9361 42.1052 31.9361 41.7192V39.8094C31.9361 39.4233 31.6212 39.1084 31.2351 39.1084Z" fill="white"/>
        <path d="M40.7644 39.1086C40.3784 39.1086 40.0635 39.4235 40.0635 39.8095V41.7194C40.0635 42.1054 40.3784 42.4203 40.7644 42.4203C41.1505 42.4203 41.4654 42.1054 41.4654 41.7194V39.8095C41.4654 39.4235 41.1505 39.1086 40.7644 39.1086Z" fill="white"/>
        <path d="M37.0154 26.2173H47.4281C47.8141 26.2173 48.1291 25.9024 48.1291 25.5164C48.1291 25.1304 47.8141 24.8154 47.4281 24.8154H37.0154C36.6294 24.8154 36.3145 25.1304 36.3145 25.5164C36.3145 25.9024 36.6294 26.2173 37.0154 26.2173Z" fill="white"/>
        <path d="M52 30.9206V23.8705C52 21.7371 50.2629 20 48.1295 20H36.3251C34.1917 20 32.4546 21.7371 32.4546 23.8705V31.4895H30.9308C27.6597 31.4895 24.7644 33.8057 24.0533 37.0057L24.0127 37.2089H23.3829V30.9003L23.5556 30.8394C24.5917 30.4736 25.2927 29.4883 25.2927 28.381C25.2927 26.9486 24.1244 25.7803 22.6921 25.7803C21.2597 25.7803 20.061 26.9486 20.061 28.381C20.061 29.4781 20.7619 30.4635 21.7981 30.8394L21.9708 30.9003V37.28L21.7981 37.341C20.7213 37.6965 20 38.6921 20 39.8197V43.6292C20 45.0616 21.1683 46.2298 22.6006 46.2298H23.9822L24.0229 46.433C24.7137 49.6635 27.6089 52.0102 30.9206 52.0102H41.0794C44.381 52.0102 47.2863 49.6635 47.9771 46.433L48.0178 46.2298H49.3994C50.8317 46.2298 52 45.0616 52 43.6292V39.8197C52 38.3873 50.8317 37.219 49.3994 37.219H48.0076L47.967 37.0159C47.8248 36.3759 47.5911 35.7562 47.2762 35.1771L47.073 34.8013H48.1397C50.273 34.8013 52.0102 33.0641 52.0102 30.9308L52 30.9206ZM33.8463 34.8724V23.8705C33.8463 22.5092 34.9536 21.3917 36.3251 21.3917H48.1295C49.4908 21.3917 50.6083 22.499 50.6083 23.8705V30.9206C50.6083 32.2819 49.501 33.3994 48.1295 33.3994H36.9549C36.8432 33.3994 36.7416 33.4197 36.64 33.4705L33.8362 34.8724H33.8463ZM41.0895 50.6083H30.9308C27.8121 50.6083 25.2825 48.0686 25.2825 44.96V38.5498C25.2825 35.4311 27.8222 32.9016 30.9308 32.9016H32.4546V36.0102C32.4546 36.254 32.5765 36.4775 32.7898 36.6095C32.993 36.7314 33.247 36.7416 33.4705 36.64L37.2292 34.8114H45.3257L45.407 34.9029C46.2705 35.9187 46.7479 37.219 46.7479 38.56V44.9702C46.7479 48.0889 44.2083 50.6184 41.0997 50.6184L41.0895 50.6083ZM22.6616 27.1721C23.3219 27.1721 23.8705 27.7105 23.8705 28.381C23.8705 29.0514 23.3321 29.5898 22.6616 29.5898C21.9911 29.5898 21.4527 29.0514 21.4527 28.381C21.4527 27.7105 21.9911 27.1721 22.6616 27.1721ZM23.8705 38.6006V44.8279H22.6006C21.9403 44.8279 21.3917 44.2895 21.3917 43.619V39.8095C21.3917 39.139 21.9302 38.6006 22.6006 38.6006H23.8705ZM50.5981 43.619C50.5981 44.2895 50.0597 44.8279 49.3892 44.8279H48.1194V38.6006H49.3892C50.0597 38.6006 50.5981 39.139 50.5981 39.8095V43.619Z" fill="white"/>
        <path d="M47.4281 30.0269C47.8141 30.0269 48.1291 29.712 48.1291 29.326C48.1291 28.9399 47.8141 28.625 47.4281 28.625H37.0154C36.6294 28.625 36.3145 28.9399 36.3145 29.326C36.3145 29.712 36.6294 30.0269 37.0154 30.0269H47.4281Z" fill="white"/>
        <path d="M37.9001 44.8281H34.0906C33.7046 44.8281 33.3896 45.143 33.3896 45.5291C33.3896 45.9151 33.7046 46.23 34.0906 46.23H37.9001C38.2862 46.23 38.6011 45.9151 38.6011 45.5291C38.6011 45.143 38.2862 44.8281 37.9001 44.8281Z" fill="white"/>
    </g>
    <defs>
        <clipPath id="clip0_117_1084">
            <rect width="32" height="32" fill="white" transform="translate(20 20)"/>
        </clipPath>
    </defs>
</svg>
