<svg width="72" height="72" viewBox="0 0 72 72" fill="none" xmlns="http://www.w3.org/2000/svg">
    <circle cx="36" cy="36" r="36" fill="#426D7D"/>
    <g clip-path="url(#clip0_117_1097)">
        <path d="M31.6053 24.4332H20.7147C20.3206 24.4332 20 24.7537 20 25.1479V36.0385C20 36.4326 20.3206 36.7532 20.7147 36.7532H31.6053C31.9994 36.7532 32.32 36.4326 32.32 36.0385V25.1479C32.32 24.7537 31.9994 24.4332 31.6053 24.4332ZM30.8906 35.3238H21.4294V25.8625H30.8906V35.3238Z" fill="white"/>
        <path d="M31.6053 39.68H20.7147C20.3206 39.68 20 40.0006 20 40.3947V51.2853C20 51.6794 20.3206 52 20.7147 52H31.6053C31.9994 52 32.32 51.6794 32.32 51.2853V40.3947C32.32 40.0006 31.9994 39.68 31.6053 39.68ZM30.8906 50.5706H21.4294V41.1094H30.8906V50.5706Z" fill="white"/>
        <path d="M46.8524 39.68H35.9618C35.5677 39.68 35.2471 40.0006 35.2471 40.3947V51.2853C35.2471 51.6794 35.5677 52 35.9618 52H46.8524C47.2465 52 47.5671 51.6794 47.5671 51.2853V40.3947C47.5671 40.0006 47.2465 39.68 46.8524 39.68ZM46.1377 50.5706H36.6765V41.1094H46.1377V50.5706Z" fill="white"/>
        <path d="M51.7909 27.9093L44.0898 20.209C43.9551 20.0742 43.7754 20 43.5848 20C43.3942 20 43.2145 20.0742 43.0797 20.209L35.3787 27.91C35.1003 28.1884 35.1003 28.6417 35.3787 28.9208L43.0797 36.6218C43.3581 36.9002 43.8114 36.9002 44.0905 36.6218L51.7915 28.9208C52.0699 28.6424 52.0699 28.1891 51.7915 27.91L51.7909 27.9093ZM43.5848 35.1046L36.8946 28.4144L43.5848 21.7241L50.275 28.4144L43.5848 35.1046Z" fill="white"/>
    </g>
    <defs>
        <clipPath id="clip0_117_1097">
            <rect width="32" height="32" fill="white" transform="translate(20 20)"/>
        </clipPath>
    </defs>
</svg>
