<svg width="72" height="72" viewBox="0 0 72 72" fill="none" xmlns="http://www.w3.org/2000/svg">
    <circle cx="36" cy="36" r="36" fill="#426D7D"/>
    <path d="M49.9864 31.639C48.6729 30.305 46.919 29.5617 45.0469 29.5474C44.9382 29.546 44.8213 29.548 44.7002 29.5528L44.3324 29.5679L44.277 29.2041C43.5235 24.2277 39.5768 22 36.0001 22C32.424 22 28.4773 24.2277 27.7225 29.2041L27.6671 29.5679L27.2999 29.5528C27.2028 29.5487 27.1037 29.5467 27.0052 29.5467C23.237 29.5467 20.1628 32.4971 20.0062 36.2639C19.9283 38.1313 20.5847 39.9193 21.8537 41.2985C23.1228 42.6776 24.85 43.4797 26.7173 43.5576C26.8274 43.5624 26.9443 43.5644 27.064 43.5631H28.889C29.0715 43.5631 29.2431 43.492 29.3724 43.3627C29.5016 43.2335 29.5727 43.0619 29.5727 42.8793C29.5727 42.6968 29.5016 42.5251 29.3724 42.3959C29.2431 42.2667 29.0715 42.1956 28.889 42.1956H27.0667C25.5638 42.2099 24.1382 41.6369 23.0613 40.5812C21.9843 39.5248 21.3826 38.1128 21.3676 36.6044C21.3525 35.0961 21.9262 33.6718 22.982 32.5949C24.0384 31.5179 25.4503 30.9162 26.9594 30.9012C27.3772 30.8964 27.8011 30.9395 28.2202 31.0311C28.5915 31.0988 28.9498 30.8485 29.0196 30.4738C29.0319 30.4089 29.0346 30.3419 29.0278 30.2756L29.0243 30.2482L29.0257 30.2161C29.2233 25.5056 32.7782 23.3586 35.998 23.3573C39.2165 23.3573 42.7727 25.5002 42.9737 30.2051L42.9751 30.2345L42.9717 30.268C42.9293 30.6496 43.2055 30.9942 43.5871 31.0366C43.6548 31.0441 43.7218 31.0414 43.7881 31.0297C46.8247 30.3672 49.8367 32.3015 50.502 35.3415C50.8247 36.815 50.5539 38.3262 49.7402 39.5966C48.9266 40.867 47.6664 41.7436 46.1929 42.0663C45.7778 42.1573 45.3525 42.201 44.9286 42.1969H43.1112C42.7378 42.2031 42.439 42.5142 42.4452 42.8916C42.4507 43.2636 42.7467 43.559 43.1187 43.5644H44.9915C46.8431 43.5644 48.5888 42.8492 49.9078 41.5508C51.2418 40.2379 51.985 38.4834 51.9994 36.6113C52.0144 34.7398 51.2992 32.9737 49.9857 31.6397L49.9864 31.639Z" fill="white"/>
    <path d="M32.6568 35.2867C32.3888 35.0248 31.9526 35.0255 31.6845 35.2888L28.9529 38.0204C28.6903 38.2912 28.6992 38.7274 28.9734 38.9927C29.0999 39.1158 29.2667 39.1848 29.4418 39.1876L29.4732 39.1896C29.716 39.217 30.1023 38.83 30.4483 38.4621C30.5755 38.3274 30.6951 38.1995 30.8079 38.1011L31.4883 37.5062V49.444C31.4883 49.8207 31.7953 50.1277 32.172 50.1277C32.5488 50.1277 32.8558 49.8207 32.8558 49.444V37.5076L33.5355 38.1004C33.651 38.2009 33.7727 38.3308 33.9013 38.4676C34.2404 38.8293 34.6233 39.2129 34.8626 39.1896L34.89 39.1876C35.0808 39.1842 35.2565 39.1096 35.385 38.977C35.5136 38.8443 35.5826 38.67 35.5799 38.4854C35.5772 38.3089 35.5081 38.1428 35.385 38.0156L32.6561 35.2867H32.6568Z" fill="white"/>
    <path d="M42.0781 46.2284L40.5137 47.7928V35.7682C40.5137 35.3915 40.2067 35.0845 39.8299 35.0845C39.4532 35.0845 39.1461 35.3915 39.1461 35.7682V47.7928L37.5783 46.2243C37.4532 46.1026 37.2856 46.0356 37.1065 46.0356H37.0956C36.9137 46.0383 36.7434 46.1122 36.6162 46.2428C36.3571 46.5101 36.3571 46.9286 36.6162 47.1959L39.3465 49.9262C39.4791 50.0568 39.6542 50.1217 39.8292 50.1217C40.0043 50.1217 40.1827 50.0554 40.3174 49.9228L43.0491 47.1911C43.3089 46.9231 43.3007 46.4917 43.0299 46.2291C42.7632 45.9699 42.3455 45.9699 42.0781 46.2277V46.2284Z" fill="white"/>
    <path d="M39.8285 32.6227H39.8305C40.2038 32.6131 40.502 32.3013 40.4965 31.9287C40.491 31.5588 40.1963 31.2627 39.825 31.2559C39.6486 31.2593 39.4825 31.3331 39.356 31.4637C39.2288 31.595 39.1604 31.768 39.1632 31.9506C39.1686 32.3184 39.4613 32.6138 39.8291 32.6234L39.8285 32.6227Z" fill="white"/>
</svg>
