<svg width="72" height="72" viewBox="0 0 72 72" fill="none" xmlns="http://www.w3.org/2000/svg">
    <circle cx="36" cy="36" r="36" fill="#426D7D"/>
    <g clip-path="url(#clip0_117_1119)">
        <path d="M36.0003 36C35.9217 36 35.8443 35.9867 35.7697 35.9587L23.103 31.292C22.8403 31.196 22.667 30.9454 22.667 30.6667C22.667 30.388 22.8417 30.1374 23.1043 30.0414L31.771 26.8547C32.115 26.7294 32.5003 26.9054 32.627 27.2507C32.7537 27.596 32.5763 27.9787 32.231 28.1067L25.2643 30.6667L36.0003 34.6227L46.7363 30.6667L39.7697 28.1054C39.4243 27.9787 39.247 27.5947 39.3737 27.2494C39.5003 26.904 39.8843 26.728 40.2297 26.8534L48.8963 30.04C49.159 30.1374 49.3337 30.388 49.3337 30.6667C49.3337 30.9454 49.1603 31.196 48.8977 31.292L36.231 35.9587C36.1563 35.9867 36.079 36 36.0003 36Z" fill="white"/>
        <path d="M36.0001 52C35.9215 52 35.8441 51.9867 35.7708 51.9587L28.6908 49.3587C28.3455 49.232 28.1681 48.8493 28.2948 48.5027C28.4215 48.1573 28.8055 47.98 29.1508 48.1067L36.0001 50.6227L42.8508 48.1067C43.1961 47.9787 43.5788 48.1573 43.7068 48.5027C43.8335 48.848 43.6561 49.2307 43.3108 49.3587L36.2308 51.9587C36.1561 51.9867 36.0788 52 36.0001 52Z" fill="white"/>
        <path d="M23.3337 43.68C22.9657 43.68 22.667 43.3813 22.667 43.0133V30.6667C22.667 30.2987 22.9657 30 23.3337 30C23.7017 30 24.0003 30.2987 24.0003 30.6667V43.0133C24.0003 43.3813 23.7017 43.68 23.3337 43.68Z" fill="white"/>
        <path d="M48.6667 43.68C48.2987 43.68 48 43.3813 48 43.0133V30.6667C48 30.2987 48.2987 30 48.6667 30C49.0347 30 49.3333 30.2987 49.3333 30.6667V43.0133C49.3333 43.3813 49.0347 43.68 48.6667 43.68Z" fill="white"/>
        <path d="M35.9997 30.6667C35.6317 30.6667 35.333 30.368 35.333 30V24.6667C35.333 24.2987 35.6317 24 35.9997 24C36.3677 24 36.6663 24.2987 36.6663 24.6667V30C36.6663 30.368 36.3677 30.6667 35.9997 30.6667Z" fill="white"/>
        <path d="M47.9203 48.5866C47.7497 48.5866 47.579 48.5213 47.4483 48.392L44.195 45.1386C43.935 44.8786 43.935 44.456 44.195 44.196C44.455 43.936 44.8777 43.936 45.1377 44.196L48.391 47.4493C48.651 47.7093 48.651 48.132 48.391 48.392C48.2617 48.5213 48.091 48.5866 47.9203 48.5866Z" fill="white"/>
        <path d="M24.0801 48.5867C23.9094 48.5867 23.7388 48.5213 23.6081 48.392C23.3481 48.132 23.3481 47.7093 23.6081 47.4493L26.8614 44.196C27.1214 43.936 27.5441 43.936 27.8041 44.196C28.0641 44.456 28.0641 44.8787 27.8041 45.1387L24.5508 48.392C24.4214 48.5213 24.2508 48.5867 24.0801 48.5867Z" fill="white"/>
        <path d="M35.9997 52C35.6317 52 35.333 51.7014 35.333 51.3334V35.3334C35.333 34.9654 35.6317 34.6667 35.9997 34.6667C36.3677 34.6667 36.6663 34.9654 36.6663 35.3334V51.3334C36.6663 51.7014 36.3677 52 35.9997 52Z" fill="white"/>
        <path d="M35.9997 25.3333C34.529 25.3333 33.333 24.1373 33.333 22.6667C33.333 21.196 34.529 20 35.9997 20C37.4703 20 38.6663 21.196 38.6663 22.6667C38.6663 24.1373 37.4703 25.3333 35.9997 25.3333ZM35.9997 21.3333C35.265 21.3333 34.6663 21.932 34.6663 22.6667C34.6663 23.4013 35.265 24 35.9997 24C36.7343 24 37.333 23.4013 37.333 22.6667C37.333 21.932 36.7343 21.3333 35.9997 21.3333Z" fill="white"/>
        <path d="M49.3337 52C47.863 52 46.667 50.804 46.667 49.3334C46.667 47.8627 47.863 46.6667 49.3337 46.6667C50.8043 46.6667 52.0003 47.8627 52.0003 49.3334C52.0003 50.804 50.8043 52 49.3337 52ZM49.3337 48C48.599 48 48.0003 48.5987 48.0003 49.3334C48.0003 50.068 48.599 50.6667 49.3337 50.6667C50.0683 50.6667 50.667 50.068 50.667 49.3334C50.667 48.5987 50.0683 48 49.3337 48Z" fill="white"/>
        <path d="M22.6667 52C21.196 52 20 50.804 20 49.3333C20 47.8627 21.196 46.6667 22.6667 46.6667C24.1373 46.6667 25.3333 47.8627 25.3333 49.3333C25.3333 50.804 24.1373 52 22.6667 52ZM22.6667 48C21.932 48 21.3333 48.5987 21.3333 49.3333C21.3333 50.068 21.932 50.6667 22.6667 50.6667C23.4013 50.6667 24 50.068 24 49.3333C24 48.5987 23.4013 48 22.6667 48Z" fill="white"/>
    </g>
    <defs>
        <clipPath id="clip0_117_1119">
            <rect width="32" height="32" fill="white" transform="translate(20 20)"/>
        </clipPath>
    </defs>
</svg>
