<svg width="20" height="20" viewBox="0 0 20 20" fill="none" xmlns="http://www.w3.org/2000/svg">
<path d="M19.6551 16.5517H0.344843C0.154414 16.5517 0 16.3973 0 16.2069V3.79309C0 3.60266 0.154414 3.44824 0.344843 3.44824H19.6552C19.8456 3.44824 20 3.60266 20 3.79309V16.2069C20 16.3973 19.8455 16.5517 19.6551 16.5517Z" fill="#41479B"/>
<path d="M9.65514 3.44824H9.05615L5.86202 5.54097V3.44824H4.13788V5.54097L0.943748 3.44824H0.344843C0.154414 3.44824 0 3.60262 0 3.79305V4.06656L2.74042 5.86199H0V7.58612H2.74042L0 9.38159V9.65511C0 9.84553 0.154414 9.99995 0.344843 9.99995H0.943826L4.13796 7.90722V9.99995H5.8621V7.90722L9.05619 9.99995H9.65518C9.84561 9.99995 10 9.84553 10 9.65511V9.38159L7.2596 7.58616H9.99998V5.86203H7.25956L9.99998 4.0666V3.79309C9.99998 3.60262 9.84557 3.44824 9.65514 3.44824Z" fill="#F5F5F5"/>
<path d="M9.99998 6.20687H5.51722V3.44824H4.48277V6.20687H0V7.24132H4.48277V9.99995H5.51722V7.24132H9.99998V6.20687Z" fill="#FF4B55"/>
<path d="M3.79308 5.8621L0.164336 3.50659C0.0677733 3.56769 0 3.67038 0 3.79311V3.81101L3.15972 5.8621H3.79308Z" fill="#FF4B55"/>
<path d="M6.49566 5.86203L9.94777 3.62117C9.88777 3.51965 9.78191 3.44824 9.65538 3.44824H9.58081L5.8623 5.86203H6.49566Z" fill="#FF4B55"/>
<path d="M3.49531 7.58618L0.0498047 9.82274C0.109219 9.92672 0.216718 9.99997 0.345078 9.99997H0.410117L4.1287 7.58618H3.49531Z" fill="#FF4B55"/>
<path d="M9.99433 9.68219L6.76519 7.58618H6.13184L9.79878 9.96645C9.90863 9.91547 9.98398 9.80864 9.99433 9.68219Z" fill="#FF4B55"/>
<path d="M5.10441 11.8802L5.36469 12.7394L6.19879 12.4072C6.26996 12.3789 6.33464 12.46 6.29121 12.5231L5.78168 13.2623L6.56144 13.7073C6.62796 13.7452 6.60488 13.8464 6.52847 13.8517L5.63281 13.9143L5.77113 14.8014C5.78293 14.8771 5.68941 14.9221 5.63761 14.8657L5.03027 14.2044L4.42293 14.8657C4.37113 14.9221 4.27762 14.8771 4.28941 14.8014L4.42773 13.9143L3.53207 13.8517C3.45567 13.8464 3.43258 13.7452 3.4991 13.7073L4.27887 13.2623L3.76934 12.5231C3.7259 12.46 3.79059 12.3789 3.86176 12.4072L4.69586 12.7394L4.95613 11.8802C4.97844 11.8069 5.08223 11.8069 5.10441 11.8802Z" fill="#F5F5F5"/>
<path d="M15.363 5.77076L15.4901 6.19049L15.8976 6.02822C15.9323 6.01439 15.9639 6.054 15.9427 6.08482L15.6938 6.44596L16.0747 6.66334C16.1072 6.68185 16.0959 6.73131 16.0586 6.73389L15.6211 6.76443L15.6886 7.19775C15.6944 7.23474 15.6487 7.25674 15.6234 7.22916L15.3267 6.90615L15.03 7.22916C15.0047 7.2567 14.959 7.2347 14.9648 7.19775L15.0323 6.76443L14.5948 6.73389C14.5575 6.73131 14.5462 6.68185 14.5787 6.66334L14.9596 6.44596L14.7107 6.08482C14.6895 6.054 14.7211 6.01439 14.7558 6.02822L15.1633 6.19049L15.2904 5.77076C15.3014 5.73494 15.3522 5.73494 15.363 5.77076Z" fill="#F5F5F5"/>
<path d="M12.527 8.99244L12.6542 9.41217L13.0616 9.2499C13.0963 9.23607 13.128 9.27568 13.1067 9.3065L12.8579 9.66764L13.2388 9.88502C13.2713 9.90353 13.26 9.95299 13.2226 9.95556L12.7851 9.98611L12.8527 10.4194C12.8585 10.4564 12.8127 10.4784 12.7874 10.4508L12.4908 10.1278L12.1941 10.4508C12.1688 10.4784 12.1231 10.4564 12.1288 10.4194L12.1964 9.98611L11.7589 9.95556C11.7215 9.95299 11.7103 9.90353 11.7428 9.88502L12.1236 9.66764L11.8748 9.3065C11.8535 9.27568 11.8852 9.23607 11.9199 9.2499L12.3273 9.41217L12.4545 8.99244C12.4655 8.95662 12.5162 8.95662 12.527 8.99244Z" fill="#F5F5F5"/>
<path d="M18.0446 7.61305L18.1717 8.03277L18.5792 7.87051C18.6139 7.85668 18.6455 7.89629 18.6243 7.92711L18.3754 8.28824L18.7563 8.50562C18.7888 8.52414 18.7775 8.57359 18.7402 8.57617L18.3027 8.60672L18.3702 9.04004C18.376 9.07703 18.3303 9.09902 18.305 9.07144L18.0083 8.74844L17.7117 9.07144C17.6863 9.09898 17.6407 9.07699 17.6464 9.04004L17.714 8.60672L17.2765 8.57617C17.2391 8.57359 17.2278 8.52414 17.2603 8.50562L17.6412 8.28824L17.3924 7.92711C17.3711 7.89629 17.4028 7.85668 17.4375 7.87051L17.8449 8.03277L17.972 7.61305C17.983 7.57723 18.0337 7.57723 18.0446 7.61305Z" fill="#F5F5F5"/>
<path d="M15.363 13.1304L15.4901 13.5501L15.8976 13.3878C15.9323 13.374 15.9639 13.4136 15.9427 13.4444L15.6938 13.8055L16.0747 14.0229C16.1072 14.0414 16.0959 14.0909 16.0586 14.0935L15.6211 14.124L15.6886 14.5573C15.6944 14.5943 15.6487 14.6163 15.6234 14.5887L15.3267 14.2657L15.03 14.5887C15.0047 14.6163 14.959 14.5943 14.9648 14.5573L15.0323 14.124L14.5948 14.0935C14.5575 14.0909 14.5462 14.0414 14.5787 14.0229L14.9596 13.8055L14.7107 13.4444C14.6895 13.4136 14.7211 13.374 14.7558 13.3878L15.1633 13.5501L15.2904 13.1304C15.3014 13.0946 15.3522 13.0946 15.363 13.1304Z" fill="#F5F5F5"/>
<path d="M16.3458 9.74678L16.2438 10.0529L15.9211 10.0554C15.8794 10.0557 15.862 10.109 15.8957 10.1338L16.1552 10.3255L16.0579 10.6331C16.0453 10.6729 16.0906 10.7059 16.1246 10.6816L16.3871 10.494L16.6496 10.6816C16.6836 10.7059 16.7289 10.6729 16.7163 10.6331L16.619 10.3255L16.8785 10.1338C16.9121 10.109 16.8948 10.0557 16.853 10.0554L16.5304 10.0529L16.4283 9.74678C16.4151 9.70713 16.359 9.70713 16.3458 9.74678Z" fill="#F5F5F5"/>
</svg>
