<svg width="20" height="20" viewBox="0 0 20 20" fill="none" xmlns="http://www.w3.org/2000/svg">
    <g clip-path="url(#clip0_117_863)">
        <path d="M10 19.5C15.5214 19.5 20 15.0214 20 9.5C20 3.97856 15.5214 -0.5 10 -0.5C4.47856 -0.5 0 3.97856 0 9.5C0 15.0214 4.47856 19.5 10 19.5ZM9.28569 3.78572C9.28569 3.39285 9.60713 3.07142 10 3.07142C10.3929 3.07142 10.7143 3.39285 10.7143 3.78572V9.15715L14.0179 11.8C14.325 12.0464 14.375 12.4964 14.1286 12.8036C13.9893 12.9786 13.7822 13.0714 13.5714 13.0714C13.4143 13.0714 13.2571 13.0214 13.125 12.9143L9.55359 10.0572C9.38574 9.92142 9.28575 9.71788 9.28575 9.5V3.78572H9.28569Z" fill="#426D7D"/>
    </g>
    <defs>
        <clipPath id="clip0_117_863">
            <rect width="20" height="20" fill="white"/>
        </clipPath>
    </defs>
</svg>
