<svg width="20" height="20" viewBox="0 0 20 20" fill="none" xmlns="http://www.w3.org/2000/svg">
    <path d="M13.333 16.5519H19.6548C19.8453 16.5519 19.9997 16.3975 19.9997 16.207V3.79325C19.9997 3.60282 19.8453 3.4484 19.6548 3.4484H13.333V16.5519Z" fill="#FF4B55"/>
    <path d="M13.3338 16.5516H6.66699V3.44812H13.3338V16.5516Z" fill="#41479B"/>
    <path d="M0.344844 16.5519H6.66668V3.44844H0.344844C0.154414 3.44844 0 3.60286 0 3.79329V16.2071C0 16.3975 0.154414 16.5519 0.344844 16.5519Z" fill="#FF4B55"/>
    <path d="M3.3473 11.1318C2.82617 11.1318 2.37949 11.4458 2.1827 11.8943C2.18258 11.8875 2.18066 11.8811 2.18066 11.8742C2.18066 11.23 2.70301 10.7076 3.3473 10.7076C3.9916 10.7076 4.51391 11.23 4.51391 11.8742C4.51391 11.8811 4.51199 11.8875 4.51187 11.8942C4.31508 11.4458 3.8684 11.1318 3.3473 11.1318Z" fill="#F9CF02"/>
    <path d="M3.34648 11.3439C3.81506 11.3439 4.19492 11.7238 4.19492 12.1923C4.19492 12.6609 3.81506 13.0408 3.34648 13.0408C2.87791 13.0408 2.49805 12.6609 2.49805 12.1923C2.49805 11.7238 2.87791 11.3439 3.34648 11.3439Z" fill="#F9CF02"/>
    <path d="M2.81641 13.7832C2.81641 13.4903 3.05383 13.2529 3.34668 13.2529C3.63953 13.2529 3.87695 13.4903 3.87695 13.7832C3.87695 13.9953 3.74438 14.0218 3.74438 14.1014C3.74438 14.1809 3.82391 14.2869 3.66484 14.4195C3.74437 14.2869 3.61184 14.2604 3.61184 14.1279C3.61184 13.9953 3.66484 13.9953 3.66484 13.8892C3.66484 13.8306 3.61734 13.7832 3.55883 13.7832C3.50023 13.7832 3.45281 13.8307 3.45281 13.8892C3.45281 13.9953 3.55883 14.1014 3.55883 14.2605C3.55883 14.4196 3.5323 14.4726 3.45281 14.6051C3.37328 14.7377 3.2407 14.8438 3.3468 14.9498C3.1877 14.8968 3.26727 14.6847 3.26727 14.5521C3.26727 14.4195 3.16125 14.34 3.16125 14.1809C3.16125 14.0218 3.24078 13.9953 3.24078 13.8892C3.24078 13.8306 3.19328 13.7832 3.13477 13.7832C3.07625 13.7832 3.02875 13.8307 3.02875 13.8892C3.02875 13.9953 3.08176 13.9953 3.08176 14.1279C3.08176 14.2605 2.94918 14.287 3.02875 14.4195C2.86965 14.2869 2.94922 14.1809 2.94922 14.1014C2.94898 14.0218 2.81641 13.9953 2.81641 13.7832Z" fill="#F9CF02"/>
    <path d="M1.01367 10.4079V5.4924C1.01367 5.44404 1.05289 5.40486 1.10121 5.40486H1.98664C2.035 5.40486 2.07418 5.44408 2.07418 5.4924V10.4079C2.07418 10.4563 2.03496 10.4955 1.98664 10.4955H1.10121C1.05289 10.4955 1.01367 10.4563 1.01367 10.4079Z" fill="#F9CF02"/>
    <path d="M4.61914 10.4079V5.4924C4.61914 5.44404 4.65836 5.40486 4.70668 5.40486H5.59211C5.64047 5.40486 5.67965 5.44408 5.67965 5.4924V10.4079C5.67965 10.4563 5.64043 10.4955 5.59211 10.4955H4.70668C4.65832 10.4955 4.61914 10.4563 4.61914 10.4079Z" fill="#F9CF02"/>
    <path d="M2.28613 9.55956V9.31045C2.28613 9.26209 2.32535 9.22291 2.37367 9.22291H4.31965C4.36801 9.22291 4.40719 9.26213 4.40719 9.31045V9.55956C4.40719 9.60792 4.36797 9.64709 4.31965 9.64709H2.37367C2.32531 9.64709 2.28613 9.60788 2.28613 9.55956Z" fill="#F9CF02"/>
    <path d="M2.28613 6.58995V6.34085C2.28613 6.29249 2.32535 6.25331 2.37367 6.25331H4.31965C4.36801 6.25331 4.40719 6.29253 4.40719 6.34085V6.58995C4.40719 6.63831 4.36797 6.67749 4.31965 6.67749H2.37367C2.32531 6.67749 2.28613 6.63831 2.28613 6.58995Z" fill="#F9CF02"/>
    <path d="M2.44423 10.4955H4.24923C4.29364 10.4955 4.30981 10.437 4.27177 10.4142L3.41434 9.89966C3.37274 9.8747 3.32075 9.8747 3.27923 9.89966L2.42173 10.4142C2.38364 10.437 2.39985 10.4955 2.44423 10.4955Z" fill="#F9CF02"/>
    <path d="M2.44424 6.04114H4.24924C4.29365 6.04114 4.30982 5.98266 4.27178 5.95981L3.41428 5.44536C3.37267 5.42039 3.32068 5.42039 3.27916 5.44536L2.4217 5.95985C2.38365 5.9827 2.39986 6.04114 2.44424 6.04114Z" fill="#F9CF02"/>
    <path d="M3.45078 9.00246C3.41734 9.00566 3.38496 9.01257 3.3507 9.01257C2.76746 9.01257 2.29297 8.53808 2.29297 7.95484C2.29297 7.60867 2.46207 7.30398 2.72043 7.11175C2.75016 7.08964 2.78945 7.1216 2.775 7.15578C2.74402 7.22917 2.7266 7.30961 2.7266 7.39429C2.7266 7.73902 3.00758 8.01937 3.35262 8.01832C3.53398 8.01777 3.70785 8.10734 3.78813 8.27C3.95418 8.60636 3.75156 8.9407 3.45078 9.00246ZM3.3507 8.3039C3.23391 8.3039 3.13914 8.39859 3.13914 8.51546C3.13914 8.63226 3.23387 8.72699 3.3507 8.72699C3.4675 8.72699 3.56223 8.6323 3.56223 8.51546C3.56219 8.39859 3.4675 8.3039 3.3507 8.3039Z" fill="#F9CF02"/>
    <path d="M3.98081 8.798C3.95109 8.82011 3.91179 8.78811 3.92624 8.75397C3.95726 8.68057 3.97464 8.60014 3.97464 8.5155C3.97464 8.17073 3.69362 7.89038 3.34862 7.89143C3.16726 7.89198 2.99335 7.80241 2.91312 7.63975C2.74714 7.30335 2.94976 6.96897 3.25054 6.90729C3.28398 6.90409 3.31636 6.89718 3.35062 6.89718C3.93382 6.89718 4.40835 7.37167 4.40835 7.95491C4.40827 8.30104 4.23917 8.60573 3.98081 8.798ZM3.35062 7.18276C3.23382 7.18276 3.13905 7.27745 3.13905 7.39432C3.13905 7.51112 3.23378 7.60585 3.35062 7.60585C3.46741 7.60585 3.56214 7.51116 3.56214 7.39432C3.5621 7.27749 3.46741 7.18276 3.35062 7.18276Z" fill="#F9CF02"/>
</svg>
