<svg width="24" height="24" viewBox="0 0 24 24" fill="none" xmlns="http://www.w3.org/2000/svg">
    <g clip-path="url(#clip0_117_1137)">
        <path fill-rule="evenodd" clip-rule="evenodd" d="M18.9352 8.31413C19.8036 7.09754 21.4449 5.78786 23.6795 4.69755C24.2602 4.41421 23.9982 3.53601 23.3572 3.61709C18.6622 4.21097 15.6191 6.26721 13.9573 9.32508C13.3392 10.4624 12.9509 11.6729 12.7441 12.9087C12.6078 13.7235 12.5718 14.3349 12.5718 15.0411C12.5718 18.1971 15.1301 20.7554 18.2861 20.7554C21.442 20.7554 24.0003 18.1971 24.0003 15.0411C24.0003 11.8852 21.4012 9.32508 18.4143 9.32508C18.5718 8.89243 18.6097 8.77016 18.9352 8.31413ZM6.36377 8.31413C7.23215 7.09754 8.87351 5.78786 11.1081 4.69755C11.6888 4.41421 11.4268 3.53601 10.7858 3.61709C6.09076 4.21097 3.04766 6.26721 1.38587 9.32508C0.767809 10.4624 0.379496 11.6729 0.172703 12.9087C0.036356 13.7235 0.000347137 14.3349 0.000347137 15.0411C0.000347137 18.1971 2.55872 20.7554 5.71463 20.7554C8.87055 20.7554 11.4289 18.1971 11.4289 15.0411C11.4289 11.8852 8.82973 9.32508 5.84284 9.32508C6.00042 8.89243 6.03826 8.77016 6.36377 8.31413Z" fill="#426D7D"/>
    </g>
    <defs>
        <clipPath id="clip0_117_1137">
            <rect width="24" height="24" fill="white"/>
        </clipPath>
    </defs>
</svg>
