<svg width="20" height="20" viewBox="0 0 20 20" fill="none" xmlns="http://www.w3.org/2000/svg">
    <g clip-path="url(#clip0_117_792)">
        <path d="M19.4841 8.466L15.237 12.606L16.24 18.4533C16.2836 18.709 16.1786 18.9674 15.9686 19.1201C15.85 19.2067 15.7089 19.2503 15.5677 19.2503C15.4593 19.2503 15.3502 19.2244 15.2507 19.1719L9.99931 16.4112L4.74863 19.1712C4.51954 19.2926 4.24067 19.2728 4.03067 19.1194C3.82067 18.9667 3.71567 18.7083 3.75931 18.4526L4.76226 12.6053L0.514535 8.466C0.329081 8.28464 0.261581 8.01327 0.342035 7.76714C0.42249 7.521 0.635899 7.34032 0.892944 7.30282L6.76272 6.45054L9.38772 1.131C9.61749 0.665318 10.3811 0.665318 10.6109 1.131L13.2359 6.45054L19.1057 7.30282C19.3627 7.34032 19.5761 7.52032 19.6566 7.76714C19.737 8.01395 19.6695 8.28395 19.4841 8.466Z" fill="#FBAD17"/>
    </g>
    <defs>
        <clipPath id="clip0_117_792">
            <rect width="20" height="20" fill="white"/>
        </clipPath>
    </defs>
</svg>
