<svg width="32" height="32" viewBox="0 0 32 32" fill="none" xmlns="http://www.w3.org/2000/svg">
    <rect width="32" height="32" rx="4" fill="#14A800"/>
    <path d="M20.2934 11.4106C18.5901 11.4106 17.3046 12.5354 16.7904 14.303C15.9869 13.0496 15.3441 11.6355 14.9906 10.4143H13.1909V15.1386C13.1909 16.0706 12.4196 16.8419 11.4876 16.8419C10.5556 16.8419 9.78428 16.0706 9.78428 15.1386V10.4464H8.04883V15.1707C8.04883 17.1311 9.62359 18.7059 11.5519 18.7059C13.4801 18.7059 15.0549 17.1311 15.0549 15.1707V14.3673C15.4084 15.0743 15.8584 15.8456 16.3404 16.5205L15.2156 21.759H17.0475L17.8188 17.9346C18.5258 18.3845 19.3293 18.6416 20.2934 18.6416C22.2538 18.6416 23.8607 17.0347 23.8607 14.9779C23.8607 13.0175 22.2538 11.4106 20.2934 11.4106ZM20.2934 16.8419C19.5864 16.8419 18.8472 16.5205 18.2687 16.0384L18.4615 15.3314V15.2993C18.5901 14.528 19.0079 13.2424 20.3255 13.2424C21.3218 13.2424 22.1253 14.0459 22.1253 15.0422C22.0931 16.0384 21.2254 16.8419 20.2934 16.8419Z" fill="white"/>
</svg>
