<svg width="20" height="20" viewBox="0 0 20 20" fill="none" xmlns="http://www.w3.org/2000/svg">
    <path d="M20 3.33325H0V16.6667H20V3.33325Z" fill="#F0F0F0"/>
    <path d="M20 4.99976H0V6.66628H20V4.99976Z" fill="#D80027"/>
    <path d="M20 8.33325H0V9.99978H20V8.33325Z" fill="#D80027"/>
    <path d="M20 11.6663H0V13.3328H20V11.6663Z" fill="#D80027"/>
    <path d="M20 14.9998H0V16.6663H20V14.9998Z" fill="#D80027"/>
    <path d="M10 3.33325H0V10.5128H10V3.33325Z" fill="#2E52B2"/>
    <path d="M3.89879 6.27441L3.73773 6.76988H3.2168L3.63832 7.07594L3.47727 7.57137L3.89879 7.26531L4.32004 7.57137L4.15902 7.07594L4.58055 6.76988H4.05957L3.89879 6.27441Z" fill="#F0F0F0"/>
    <path d="M4.05957 8.55793L3.89879 8.0625L3.73773 8.55793H3.2168L3.63832 8.86402L3.47727 9.35945L3.89879 9.05336L4.32004 9.35945L4.15902 8.86402L4.58055 8.55793H4.05957Z" fill="#F0F0F0"/>
    <path d="M1.85844 8.55793L1.69762 8.0625L1.53656 8.55793H1.01562L1.43715 8.86402L1.27609 9.35945L1.69762 9.05336L2.11891 9.35945L1.95789 8.86402L2.37934 8.55793H1.85844Z" fill="#F0F0F0"/>
    <path d="M1.69762 6.27441L1.53656 6.76988H1.01562L1.43715 7.07594L1.27609 7.57137L1.69762 7.26531L2.11891 7.57137L1.95789 7.07594L2.37934 6.76988H1.85844L1.69762 6.27441Z" fill="#F0F0F0"/>
    <path d="M3.89879 4.48633L3.73773 4.98184H3.2168L3.63832 5.28793L3.47727 5.78336L3.89879 5.47727L4.32004 5.78336L4.15902 5.28793L4.58055 4.98184H4.05957L3.89879 4.48633Z" fill="#F0F0F0"/>
    <path d="M1.69762 4.48633L1.53656 4.98184H1.01562L1.43715 5.28793L1.27609 5.78336L1.69762 5.47727L2.11891 5.78336L1.95789 5.28793L2.37934 4.98184H1.85844L1.69762 4.48633Z" fill="#F0F0F0"/>
    <path d="M6.1009 6.27441L5.93988 6.76988H5.41895L5.84043 7.07594L5.67945 7.57137L6.1009 7.26531L6.52223 7.57137L6.36117 7.07594L6.78269 6.76988H6.26176L6.1009 6.27441Z" fill="#F0F0F0"/>
    <path d="M6.26176 8.55793L6.1009 8.0625L5.93988 8.55793H5.41895L5.84043 8.86402L5.67945 9.35945L6.1009 9.05336L6.52223 9.35945L6.36117 8.86402L6.78269 8.55793H6.26176Z" fill="#F0F0F0"/>
    <path d="M8.46289 8.55793L8.30207 8.0625L8.14102 8.55793H7.62012L8.04156 8.86402L7.88055 9.35945L8.30207 9.05336L8.72336 9.35945L8.5623 8.86402L8.98383 8.55793H8.46289Z" fill="#F0F0F0"/>
    <path d="M8.30207 6.27441L8.14102 6.76988H7.62012L8.04156 7.07594L7.88055 7.57137L8.30207 7.26531L8.72336 7.57137L8.5623 7.07594L8.98383 6.76988H8.46289L8.30207 6.27441Z" fill="#F0F0F0"/>
    <path d="M6.1009 4.48633L5.93988 4.98184H5.41895L5.84043 5.28793L5.67945 5.78336L6.1009 5.47727L6.52223 5.78336L6.36117 5.28793L6.78269 4.98184H6.26176L6.1009 4.48633Z" fill="#F0F0F0"/>
    <path d="M8.30207 4.48633L8.14102 4.98184H7.62012L8.04156 5.28793L7.88055 5.78336L8.30207 5.47727L8.72336 5.78336L8.5623 5.28793L8.98383 4.98184H8.46289L8.30207 4.48633Z" fill="#F0F0F0"/>
</svg>
